<svg xmlns="http://www.w3.org/2000/svg" viewBox="0 0 280 468" width="280" height="468">
  <rect width="280" height="468" rx="10" fill="#2C3E2D"/>

  <!-- Header -->
  <rect width="280" height="50" rx="10" fill="#1A2E1B"/>
  <rect y="42" width="280" height="8" fill="#1A2E1B"/>
  <text x="18" y="33" font-family="Georgia,serif" font-size="20" font-weight="bold" fill="#E8DDB5" letter-spacing="2">ARMORY</text>
  <text x="168" y="17" font-family="Arial,sans-serif" font-size="9" fill="#8AAA78" letter-spacing="1">WORKERS</text>
  <circle cx="178" cy="33" r="9" fill="none" stroke="#C8922A" stroke-width="1.5" stroke-dasharray="3,2"/>
  <circle cx="202" cy="33" r="9" fill="none" stroke="#C8922A" stroke-width="1.5" stroke-dasharray="3,2"/>

  <!-- UPGRADE SLOT -->
  <text x="18" y="70" font-family="Arial,sans-serif" font-size="9" fill="#8AAA78" letter-spacing="1.5">UPGRADE SLOT  ·  CAP: 1</text>
  <rect x="101" y="78" width="78" height="110" rx="5" fill="#162018" stroke="#4A6A4A" stroke-width="1.5" stroke-dasharray="7,4"/>
  <text x="140" y="138" font-family="Arial,sans-serif" font-size="8" fill="#4A6A4A" text-anchor="middle">upgrade</text>

  <!-- Divider -->
  <line x1="12" y1="202" x2="268" y2="202" stroke="#3A5A3A" stroke-width="1"/>

  <!-- GEAR SHOP -->
  <text x="18" y="220" font-family="Arial,sans-serif" font-size="9" fill="#8AAA78" letter-spacing="1.5">GEAR SHOP  ·  2 SLOTS</text>
  <rect x="52"  y="228" width="78" height="110" rx="5" fill="#162018" stroke="#4A6A4A" stroke-width="1.5" stroke-dasharray="7,4"/>
  <text x="91"  y="288" font-family="Arial,sans-serif" font-size="8" fill="#4A6A4A" text-anchor="middle">gear card</text>
  <rect x="150" y="228" width="78" height="110" rx="5" fill="#162018" stroke="#4A6A4A" stroke-width="1.5" stroke-dasharray="7,4"/>
  <text x="189" y="288" font-family="Arial,sans-serif" font-size="8" fill="#4A6A4A" text-anchor="middle">gear card</text>

  <!-- Divider -->
  <line x1="12" y1="352" x2="268" y2="352" stroke="#3A5A3A" stroke-width="1"/>

  <!-- GEAR DECK -->
  <text x="18" y="370" font-family="Arial,sans-serif" font-size="9" fill="#8AAA78" letter-spacing="1.5">GEAR DECK</text>
  <!-- draw pile -->
  <rect x="85" y="381" width="55" height="77" rx="4" fill="#0E1810"/>
  <rect x="81" y="377" width="55" height="77" rx="4" fill="#162018" stroke="#4A6A4A" stroke-width="1.5"/>
  <text x="108" y="420" font-family="Arial,sans-serif" font-size="7" fill="#4A6A4A" text-anchor="middle">DRAW</text>
  <!-- discard pile -->
  <rect x="144" y="377" width="55" height="77" rx="4" fill="#162018" stroke="#4A6A4A" stroke-width="1.5" stroke-dasharray="5,3"/>
  <text x="171" y="420" font-family="Arial,sans-serif" font-size="7" fill="#4A6A4A" text-anchor="middle">DISCARD</text>

  <!-- Bottom strip -->
  <rect y="452" width="280" height="16" rx="10" fill="#1A2E1B"/>
</svg>
