<svg xmlns="http://www.w3.org/2000/svg" viewBox="0 0 400 518" width="400" height="518">
  <rect width="400" height="518" rx="10" fill="#2C3E2D"/>

  <!-- Header -->
  <rect width="400" height="50" rx="10" fill="#1A2E1B"/>
  <rect y="42" width="400" height="8" fill="#1A2E1B"/>
  <text x="18" y="33" font-family="Georgia,serif" font-size="20" font-weight="bold" fill="#E8DDB5" letter-spacing="2">BARRACKS</text>
  <text x="248" y="17" font-family="Arial,sans-serif" font-size="9" fill="#8AAA78" letter-spacing="1">WORKERS</text>
  <circle cx="258" cy="33" r="9" fill="none" stroke="#C8922A" stroke-width="1.5" stroke-dasharray="3,2"/>
  <circle cx="282" cy="33" r="9" fill="none" stroke="#C8922A" stroke-width="1.5" stroke-dasharray="3,2"/>
  <circle cx="306" cy="33" r="9" fill="none" stroke="#C8922A" stroke-width="1.5" stroke-dasharray="3,2"/>
  <circle cx="330" cy="33" r="9" fill="none" stroke="#C8922A" stroke-width="1.5" stroke-dasharray="3,2"/>

  <!-- UPGRADE SLOTS -->
  <text x="18" y="70" font-family="Arial,sans-serif" font-size="9" fill="#8AAA78" letter-spacing="1.5">UPGRADE SLOTS  ·  CAP: 4</text>
  <rect x="25"  y="78" width="78" height="110" rx="5" fill="#162018" stroke="#4A6A4A" stroke-width="1.5" stroke-dasharray="7,4"/>
  <text x="64"  y="138" font-family="Arial,sans-serif" font-size="8" fill="#4A6A4A" text-anchor="middle">upgrade</text>
  <rect x="116" y="78" width="78" height="110" rx="5" fill="#162018" stroke="#4A6A4A" stroke-width="1.5" stroke-dasharray="7,4"/>
  <text x="155" y="138" font-family="Arial,sans-serif" font-size="8" fill="#4A6A4A" text-anchor="middle">upgrade</text>
  <rect x="207" y="78" width="78" height="110" rx="5" fill="#162018" stroke="#4A6A4A" stroke-width="1.5" stroke-dasharray="7,4"/>
  <text x="246" y="138" font-family="Arial,sans-serif" font-size="8" fill="#4A6A4A" text-anchor="middle">upgrade</text>
  <rect x="298" y="78" width="78" height="110" rx="5" fill="#162018" stroke="#4A6A4A" stroke-width="1.5" stroke-dasharray="7,4"/>
  <text x="337" y="138" font-family="Arial,sans-serif" font-size="8" fill="#4A6A4A" text-anchor="middle">upgrade</text>

  <!-- Divider -->
  <line x1="12" y1="202" x2="388" y2="202" stroke="#3A5A3A" stroke-width="1"/>

  <!-- UNIT SHOP -->
  <text x="18" y="220" font-family="Arial,sans-serif" font-size="9" fill="#8AAA78" letter-spacing="1.5">UNIT SHOP  ·  4 SLOTS</text>
  <rect x="25"  y="228" width="78" height="110" rx="5" fill="#162018" stroke="#4A6A4A" stroke-width="1.5" stroke-dasharray="7,4"/>
  <text x="64"  y="288" font-family="Arial,sans-serif" font-size="8" fill="#4A6A4A" text-anchor="middle">unit card</text>
  <rect x="116" y="228" width="78" height="110" rx="5" fill="#162018" stroke="#4A6A4A" stroke-width="1.5" stroke-dasharray="7,4"/>
  <text x="155" y="288" font-family="Arial,sans-serif" font-size="8" fill="#4A6A4A" text-anchor="middle">unit card</text>
  <rect x="207" y="228" width="78" height="110" rx="5" fill="#162018" stroke="#4A6A4A" stroke-width="1.5" stroke-dasharray="7,4"/>
  <text x="246" y="288" font-family="Arial,sans-serif" font-size="8" fill="#4A6A4A" text-anchor="middle">unit card</text>
  <rect x="298" y="228" width="78" height="110" rx="5" fill="#162018" stroke="#4A6A4A" stroke-width="1.5" stroke-dasharray="7,4"/>
  <text x="337" y="288" font-family="Arial,sans-serif" font-size="8" fill="#4A6A4A" text-anchor="middle">unit card</text>

  <!-- Divider -->
  <line x1="12" y1="352" x2="388" y2="352" stroke="#3A5A3A" stroke-width="1"/>

  <!-- UNIT DECK -->
  <text x="18" y="370" font-family="Arial,sans-serif" font-size="9" fill="#8AAA78" letter-spacing="1.5">UNIT DECK</text>
  <!-- draw pile (shadow + card) -->
  <rect x="122" y="382" width="78" height="110" rx="5" fill="#0E1810"/>
  <rect x="118" y="378" width="78" height="110" rx="5" fill="#162018" stroke="#4A6A4A" stroke-width="1.5"/>
  <text x="157" y="438" font-family="Arial,sans-serif" font-size="7" fill="#4A6A4A" text-anchor="middle">DRAW</text>
  <!-- discard pile -->
  <rect x="206" y="378" width="78" height="110" rx="5" fill="#162018" stroke="#4A6A4A" stroke-width="1.5" stroke-dasharray="7,4"/>
  <text x="245" y="438" font-family="Arial,sans-serif" font-size="7" fill="#4A6A4A" text-anchor="middle">DISCARD</text>

  <!-- Bottom strip -->
  <rect y="502" width="400" height="16" rx="10" fill="#1A2E1B"/>
</svg>
