<svg xmlns="http://www.w3.org/2000/svg" viewBox="0 0 860 800" width="860" height="800">

  <!-- Board background -->
  <rect width="860" height="800" rx="10" fill="#2C3E2D"/>

  <!-- Header title bar -->
  <rect x="0" y="0" width="860" height="50" rx="10" fill="#1A2E1B"/>
  <rect x="0" y="42" width="860" height="8" fill="#1A2E1B"/>
  <text x="18" y="33" font-family="Georgia,serif" font-size="20" font-weight="bold" fill="#E8DDB5">BATTLEFIELD</text>
  <text x="650" y="17" font-family="Arial,sans-serif" font-size="9" fill="#8AAA78">WORKERS</text>
  <circle cx="660" cy="33" r="9" fill="none" stroke="#C8922A" stroke-width="1.5" stroke-dasharray="3,2"/>
  <circle cx="684" cy="33" r="9" fill="none" stroke="#C8922A" stroke-width="1.5" stroke-dasharray="3,2"/>
  <circle cx="708" cy="33" r="9" fill="none" stroke="#C8922A" stroke-width="1.5" stroke-dasharray="3,2"/>

  <!-- ===== HEADER CONTENT AREA: UPGRADES LEFT | DECKS RIGHT ===== -->

  <!-- Vertical separator between upgrades and decks -->
  <line x1="284" y1="54" x2="284" y2="198" stroke="#3A5A3A" stroke-width="1"/>

  <!-- LEFT: UPGRADE SLOTS (3 slots, x=18/106/194, y=72-182) -->
  <text x="145" y="64" font-family="Arial,sans-serif" font-size="9" fill="#8AAA78" text-anchor="middle">UPGRADE SLOTS  ·  CAP: 3</text>
  <rect x="22" y="76" width="78" height="110" rx="5" fill="#162018" stroke="#4A6A4A" stroke-width="1.5" stroke-dasharray="7,4"/>
  <text x="61" y="136" font-family="Arial,sans-serif" font-size="8" fill="#4A6A4A" text-anchor="middle">upgrade</text>
  <rect x="110" y="76" width="78" height="110" rx="5" fill="#162018" stroke="#4A6A4A" stroke-width="1.5" stroke-dasharray="7,4"/>
  <text x="149" y="136" font-family="Arial,sans-serif" font-size="8" fill="#4A6A4A" text-anchor="middle">upgrade</text>
  <rect x="198" y="76" width="78" height="110" rx="5" fill="#162018" stroke="#4A6A4A" stroke-width="1.5" stroke-dasharray="7,4"/>
  <text x="237" y="136" font-family="Arial,sans-serif" font-size="8" fill="#4A6A4A" text-anchor="middle">upgrade</text>

  <!-- RIGHT: DECK PAIRS (Event | Enemy | Boss) -->
  <!-- Event deck (draw x=314, discard x=402) -->
  <text x="397" y="64" font-family="Arial,sans-serif" font-size="9" fill="#8AAA78" text-anchor="middle">EVENT DECK</text>
  <rect x="318" y="80" width="78" height="110" rx="5" fill="#0E1810"/>
  <rect x="314" y="76" width="78" height="110" rx="5" fill="#162018" stroke="#4A6A4A" stroke-width="1.5"/>
  <text x="353" y="136" font-family="Arial,sans-serif" font-size="7" fill="#4A6A4A" text-anchor="middle">DRAW</text>
  <rect x="402" y="76" width="78" height="110" rx="5" fill="#162018" stroke="#4A6A4A" stroke-width="1.5" stroke-dasharray="7,4"/>
  <text x="441" y="136" font-family="Arial,sans-serif" font-size="7" fill="#4A6A4A" text-anchor="middle">DISCARD</text>

  <!-- Enemy deck (draw x=490, discard x=578) -->
  <text x="573" y="64" font-family="Arial,sans-serif" font-size="9" fill="#8888CC" text-anchor="middle">ENEMY DECK</text>
  <rect x="494" y="80" width="78" height="110" rx="5" fill="#0A0A18"/>
  <rect x="490" y="76" width="78" height="110" rx="5" fill="#12122A" stroke="#5555AA" stroke-width="1.5"/>
  <text x="529" y="136" font-family="Arial,sans-serif" font-size="7" fill="#5555AA" text-anchor="middle">DRAW</text>
  <rect x="578" y="76" width="78" height="110" rx="5" fill="#12122A" stroke="#444488" stroke-width="1" stroke-dasharray="7,4"/>
  <text x="617" y="136" font-family="Arial,sans-serif" font-size="7" fill="#444488" text-anchor="middle">DISCARD</text>

  <!-- Boss deck (draw x=666, discard x=754) -->
  <text x="749" y="64" font-family="Arial,sans-serif" font-size="9" fill="#AA5555" text-anchor="middle">BOSS DECK</text>
  <rect x="670" y="80" width="78" height="110" rx="5" fill="#180A0A"/>
  <rect x="666" y="76" width="78" height="110" rx="5" fill="#1A0A0A" stroke="#AA4444" stroke-width="1.5"/>
  <text x="705" y="136" font-family="Arial,sans-serif" font-size="7" fill="#AA4444" text-anchor="middle">DRAW</text>
  <rect x="754" y="76" width="78" height="110" rx="5" fill="#1A0A0A" stroke="#884444" stroke-width="1" stroke-dasharray="7,4"/>
  <text x="793" y="136" font-family="Arial,sans-serif" font-size="7" fill="#884444" text-anchor="middle">DISCARD</text>

  <!-- ===== MAIN HORIZONTAL DIVIDER ===== -->
  <line x1="10" y1="202" x2="850" y2="202" stroke="#5A7A5A" stroke-width="2"/>

  <!-- Lane vertical dividers -->
  <line x1="222" y1="202" x2="222" y2="714" stroke="#5A7A5A" stroke-width="2"/>
  <line x1="434" y1="202" x2="434" y2="714" stroke="#5A7A5A" stroke-width="2"/>
  <line x1="646" y1="202" x2="646" y2="714" stroke="#5A7A5A" stroke-width="2"/>

  <!-- Lane title labels -->
  <text x="116" y="220" font-family="Arial,sans-serif" font-size="11" font-weight="bold" fill="#E8DDB5" text-anchor="middle">LANE 1</text>
  <text x="328" y="220" font-family="Arial,sans-serif" font-size="11" font-weight="bold" fill="#E8DDB5" text-anchor="middle">LANE 2</text>
  <text x="540" y="220" font-family="Arial,sans-serif" font-size="11" font-weight="bold" fill="#E8DDB5" text-anchor="middle">LANE 3</text>
  <text x="752" y="220" font-family="Arial,sans-serif" font-size="11" font-weight="bold" fill="#E8DDB5" text-anchor="middle">LANE 4</text>

  <!-- ENEMY SIDE BACKGROUNDS -->
  <rect x="10"  y="226" width="212" height="232" rx="0" fill="#1C1C2E"/>
  <rect x="222" y="226" width="212" height="232" rx="0" fill="#1C1C2E"/>
  <rect x="434" y="226" width="212" height="232" rx="0" fill="#1C1C2E"/>
  <rect x="646" y="226" width="204" height="232" rx="0" fill="#1C1C2E"/>

  <!-- Enemy section labels -->
  <text x="116" y="241" font-family="Arial,sans-serif" font-size="8" fill="#8888CC" text-anchor="middle">ENEMY</text>
  <text x="328" y="241" font-family="Arial,sans-serif" font-size="8" fill="#8888CC" text-anchor="middle">ENEMY</text>
  <text x="540" y="241" font-family="Arial,sans-serif" font-size="8" fill="#8888CC" text-anchor="middle">ENEMY</text>
  <text x="752" y="241" font-family="Arial,sans-serif" font-size="8" fill="#8888CC" text-anchor="middle">ENEMY</text>

  <!-- Enemy ACTIVE slots -->
  <rect x="77"  y="248" width="78" height="110" rx="5" fill="#12122A" stroke="#5555AA" stroke-width="1.5" stroke-dasharray="7,4"/>
  <text x="116" y="308" font-family="Arial,sans-serif" font-size="8" fill="#5555AA" text-anchor="middle">active enemy</text>
  <rect x="289" y="248" width="78" height="110" rx="5" fill="#12122A" stroke="#5555AA" stroke-width="1.5" stroke-dasharray="7,4"/>
  <text x="328" y="308" font-family="Arial,sans-serif" font-size="8" fill="#5555AA" text-anchor="middle">active enemy</text>
  <rect x="501" y="248" width="78" height="110" rx="5" fill="#12122A" stroke="#5555AA" stroke-width="1.5" stroke-dasharray="7,4"/>
  <text x="540" y="308" font-family="Arial,sans-serif" font-size="8" fill="#5555AA" text-anchor="middle">active enemy</text>
  <rect x="713" y="248" width="78" height="110" rx="5" fill="#12122A" stroke="#5555AA" stroke-width="1.5" stroke-dasharray="7,4"/>
  <text x="752" y="308" font-family="Arial,sans-serif" font-size="8" fill="#5555AA" text-anchor="middle">active enemy</text>

  <!-- Enemy RESERVE labels -->
  <text x="116" y="373" font-family="Arial,sans-serif" font-size="7" fill="#5555AA" text-anchor="middle">RESERVE (max 3)</text>
  <text x="328" y="373" font-family="Arial,sans-serif" font-size="7" fill="#5555AA" text-anchor="middle">RESERVE (max 3)</text>
  <text x="540" y="373" font-family="Arial,sans-serif" font-size="7" fill="#5555AA" text-anchor="middle">RESERVE (max 3)</text>
  <text x="752" y="373" font-family="Arial,sans-serif" font-size="7" fill="#5555AA" text-anchor="middle">RESERVE (max 3)</text>

  <!-- Enemy RESERVE slots (55x77, 3 per lane) -->
  <rect x="25"  y="380" width="55" height="77" rx="4" fill="#12122A" stroke="#444488" stroke-width="1" stroke-dasharray="5,3"/>
  <rect x="88"  y="380" width="55" height="77" rx="4" fill="#12122A" stroke="#444488" stroke-width="1" stroke-dasharray="5,3"/>
  <rect x="151" y="380" width="55" height="77" rx="4" fill="#12122A" stroke="#444488" stroke-width="1" stroke-dasharray="5,3"/>
  <rect x="237" y="380" width="55" height="77" rx="4" fill="#12122A" stroke="#444488" stroke-width="1" stroke-dasharray="5,3"/>
  <rect x="300" y="380" width="55" height="77" rx="4" fill="#12122A" stroke="#444488" stroke-width="1" stroke-dasharray="5,3"/>
  <rect x="363" y="380" width="55" height="77" rx="4" fill="#12122A" stroke="#444488" stroke-width="1" stroke-dasharray="5,3"/>
  <rect x="449" y="380" width="55" height="77" rx="4" fill="#12122A" stroke="#444488" stroke-width="1" stroke-dasharray="5,3"/>
  <rect x="512" y="380" width="55" height="77" rx="4" fill="#12122A" stroke="#444488" stroke-width="1" stroke-dasharray="5,3"/>
  <rect x="575" y="380" width="55" height="77" rx="4" fill="#12122A" stroke="#444488" stroke-width="1" stroke-dasharray="5,3"/>
  <rect x="661" y="380" width="55" height="77" rx="4" fill="#12122A" stroke="#444488" stroke-width="1" stroke-dasharray="5,3"/>
  <rect x="724" y="380" width="55" height="77" rx="4" fill="#12122A" stroke="#444488" stroke-width="1" stroke-dasharray="5,3"/>
  <rect x="787" y="380" width="55" height="77" rx="4" fill="#12122A" stroke="#444488" stroke-width="1" stroke-dasharray="5,3"/>

  <!-- VS divider -->
  <line x1="10"  y1="464" x2="222" y2="464" stroke="#4A6A4A" stroke-width="1"/>
  <line x1="222" y1="464" x2="434" y2="464" stroke="#4A6A4A" stroke-width="1"/>
  <line x1="434" y1="464" x2="646" y2="464" stroke="#4A6A4A" stroke-width="1"/>
  <line x1="646" y1="464" x2="850" y2="464" stroke="#4A6A4A" stroke-width="1"/>
  <text x="116" y="462" font-family="Arial,sans-serif" font-size="9" fill="#5A7A5A" text-anchor="middle">vs</text>
  <text x="328" y="462" font-family="Arial,sans-serif" font-size="9" fill="#5A7A5A" text-anchor="middle">vs</text>
  <text x="540" y="462" font-family="Arial,sans-serif" font-size="9" fill="#5A7A5A" text-anchor="middle">vs</text>
  <text x="752" y="462" font-family="Arial,sans-serif" font-size="9" fill="#5A7A5A" text-anchor="middle">vs</text>

  <!-- PLAYER SIDE BACKGROUNDS -->
  <rect x="10"  y="470" width="212" height="242" rx="0" fill="#28200E"/>
  <rect x="222" y="470" width="212" height="242" rx="0" fill="#28200E"/>
  <rect x="434" y="470" width="212" height="242" rx="0" fill="#28200E"/>
  <rect x="646" y="470" width="204" height="242" rx="0" fill="#28200E"/>

  <!-- Player section labels -->
  <text x="116" y="485" font-family="Arial,sans-serif" font-size="8" fill="#CC8844" text-anchor="middle">PLAYER</text>
  <text x="328" y="485" font-family="Arial,sans-serif" font-size="8" fill="#CC8844" text-anchor="middle">PLAYER</text>
  <text x="540" y="485" font-family="Arial,sans-serif" font-size="8" fill="#CC8844" text-anchor="middle">PLAYER</text>
  <text x="752" y="485" font-family="Arial,sans-serif" font-size="8" fill="#CC8844" text-anchor="middle">PLAYER</text>

  <!-- Player ACTIVE slots -->
  <rect x="77"  y="492" width="78" height="110" rx="5" fill="#2A1208" stroke="#AA6622" stroke-width="1.5" stroke-dasharray="7,4"/>
  <text x="116" y="552" font-family="Arial,sans-serif" font-size="8" fill="#AA6622" text-anchor="middle">active unit</text>
  <rect x="289" y="492" width="78" height="110" rx="5" fill="#2A1208" stroke="#AA6622" stroke-width="1.5" stroke-dasharray="7,4"/>
  <text x="328" y="552" font-family="Arial,sans-serif" font-size="8" fill="#AA6622" text-anchor="middle">active unit</text>
  <rect x="501" y="492" width="78" height="110" rx="5" fill="#2A1208" stroke="#AA6622" stroke-width="1.5" stroke-dasharray="7,4"/>
  <text x="540" y="552" font-family="Arial,sans-serif" font-size="8" fill="#AA6622" text-anchor="middle">active unit</text>
  <rect x="713" y="492" width="78" height="110" rx="5" fill="#2A1208" stroke="#AA6622" stroke-width="1.5" stroke-dasharray="7,4"/>
  <text x="752" y="552" font-family="Arial,sans-serif" font-size="8" fill="#AA6622" text-anchor="middle">active unit</text>

  <!-- Player RESERVE labels -->
  <text x="116" y="617" font-family="Arial,sans-serif" font-size="7" fill="#AA6622" text-anchor="middle">RESERVE (max 3)</text>
  <text x="328" y="617" font-family="Arial,sans-serif" font-size="7" fill="#AA6622" text-anchor="middle">RESERVE (max 3)</text>
  <text x="540" y="617" font-family="Arial,sans-serif" font-size="7" fill="#AA6622" text-anchor="middle">RESERVE (max 3)</text>
  <text x="752" y="617" font-family="Arial,sans-serif" font-size="7" fill="#AA6622" text-anchor="middle">RESERVE (max 3)</text>

  <!-- Player RESERVE slots -->
  <rect x="25"  y="624" width="55" height="77" rx="4" fill="#2A1208" stroke="#775533" stroke-width="1" stroke-dasharray="5,3"/>
  <rect x="88"  y="624" width="55" height="77" rx="4" fill="#2A1208" stroke="#775533" stroke-width="1" stroke-dasharray="5,3"/>
  <rect x="151" y="624" width="55" height="77" rx="4" fill="#2A1208" stroke="#775533" stroke-width="1" stroke-dasharray="5,3"/>
  <rect x="237" y="624" width="55" height="77" rx="4" fill="#2A1208" stroke="#775533" stroke-width="1" stroke-dasharray="5,3"/>
  <rect x="300" y="624" width="55" height="77" rx="4" fill="#2A1208" stroke="#775533" stroke-width="1" stroke-dasharray="5,3"/>
  <rect x="363" y="624" width="55" height="77" rx="4" fill="#2A1208" stroke="#775533" stroke-width="1" stroke-dasharray="5,3"/>
  <rect x="449" y="624" width="55" height="77" rx="4" fill="#2A1208" stroke="#775533" stroke-width="1" stroke-dasharray="5,3"/>
  <rect x="512" y="624" width="55" height="77" rx="4" fill="#2A1208" stroke="#775533" stroke-width="1" stroke-dasharray="5,3"/>
  <rect x="575" y="624" width="55" height="77" rx="4" fill="#2A1208" stroke="#775533" stroke-width="1" stroke-dasharray="5,3"/>
  <rect x="661" y="624" width="55" height="77" rx="4" fill="#2A1208" stroke="#775533" stroke-width="1" stroke-dasharray="5,3"/>
  <rect x="724" y="624" width="55" height="77" rx="4" fill="#2A1208" stroke="#775533" stroke-width="1" stroke-dasharray="5,3"/>
  <rect x="787" y="624" width="55" height="77" rx="4" fill="#2A1208" stroke="#775533" stroke-width="1" stroke-dasharray="5,3"/>

  <!-- ===== COMBINED TRACKER (0-20) ===== -->
  <line x1="10" y1="714" x2="850" y2="714" stroke="#5A7A5A" stroke-width="2"/>
  <text x="18" y="730" font-family="Arial,sans-serif" font-size="9" fill="#8AAA78" letter-spacing="1.5">PROGRESS / OVERRUN  ·  0-20  ·  USE TWO TOKENS</text>

  <!-- 21 boxes: each 40px wide x 44px tall, x=10-850 -->
  <rect x="10"  y="736" width="40" height="44" rx="3" fill="#162018" stroke="#4A6A4A" stroke-width="1"/>
  <text x="30"  y="763" font-family="Arial,sans-serif" font-size="13" fill="#E8DDB5" text-anchor="middle">0</text>
  <rect x="50"  y="736" width="40" height="44" rx="3" fill="#162018" stroke="#4A6A4A" stroke-width="1"/>
  <text x="70"  y="763" font-family="Arial,sans-serif" font-size="13" fill="#E8DDB5" text-anchor="middle">1</text>
  <rect x="90"  y="736" width="40" height="44" rx="3" fill="#162018" stroke="#4A6A4A" stroke-width="1"/>
  <text x="110" y="763" font-family="Arial,sans-serif" font-size="13" fill="#E8DDB5" text-anchor="middle">2</text>
  <rect x="130" y="736" width="40" height="44" rx="3" fill="#162018" stroke="#4A6A4A" stroke-width="1"/>
  <text x="150" y="763" font-family="Arial,sans-serif" font-size="13" fill="#E8DDB5" text-anchor="middle">3</text>
  <rect x="170" y="736" width="40" height="44" rx="3" fill="#162018" stroke="#4A6A4A" stroke-width="1"/>
  <text x="190" y="763" font-family="Arial,sans-serif" font-size="13" fill="#E8DDB5" text-anchor="middle">4</text>
  <rect x="210" y="736" width="40" height="44" rx="3" fill="#162018" stroke="#4A6A4A" stroke-width="1"/>
  <text x="230" y="763" font-family="Arial,sans-serif" font-size="13" fill="#E8DDB5" text-anchor="middle">5</text>
  <rect x="250" y="736" width="40" height="44" rx="3" fill="#162018" stroke="#4A6A4A" stroke-width="1"/>
  <text x="270" y="763" font-family="Arial,sans-serif" font-size="13" fill="#E8DDB5" text-anchor="middle">6</text>
  <rect x="290" y="736" width="40" height="44" rx="3" fill="#162018" stroke="#4A6A4A" stroke-width="1"/>
  <text x="310" y="763" font-family="Arial,sans-serif" font-size="13" fill="#E8DDB5" text-anchor="middle">7</text>
  <rect x="330" y="736" width="40" height="44" rx="3" fill="#162018" stroke="#4A6A4A" stroke-width="1"/>
  <text x="350" y="763" font-family="Arial,sans-serif" font-size="13" fill="#E8DDB5" text-anchor="middle">8</text>
  <rect x="370" y="736" width="40" height="44" rx="3" fill="#162018" stroke="#4A6A4A" stroke-width="1"/>
  <text x="390" y="763" font-family="Arial,sans-serif" font-size="13" fill="#E8DDB5" text-anchor="middle">9</text>
  <rect x="410" y="736" width="40" height="44" rx="3" fill="#162018" stroke="#5A5A3A" stroke-width="1"/>
  <text x="430" y="763" font-family="Arial,sans-serif" font-size="13" fill="#CCCC88" text-anchor="middle">10</text>
  <rect x="450" y="736" width="40" height="44" rx="3" fill="#1C1810" stroke="#6A5030" stroke-width="1"/>
  <text x="470" y="763" font-family="Arial,sans-serif" font-size="13" fill="#CCAA55" text-anchor="middle">11</text>
  <rect x="490" y="736" width="40" height="44" rx="3" fill="#1C1410" stroke="#7A4020" stroke-width="1"/>
  <text x="510" y="763" font-family="Arial,sans-serif" font-size="13" fill="#CC8840" text-anchor="middle">12</text>
  <rect x="530" y="736" width="40" height="44" rx="3" fill="#1C1010" stroke="#8A3020" stroke-width="1"/>
  <text x="550" y="763" font-family="Arial,sans-serif" font-size="13" fill="#CC6640" text-anchor="middle">13</text>
  <rect x="570" y="736" width="40" height="44" rx="3" fill="#1C0E0E" stroke="#9A2828" stroke-width="1"/>
  <text x="590" y="763" font-family="Arial,sans-serif" font-size="13" fill="#CC4040" text-anchor="middle">14</text>
  <rect x="610" y="736" width="40" height="44" rx="3" fill="#1C0C0C" stroke="#AA2020" stroke-width="1"/>
  <text x="630" y="763" font-family="Arial,sans-serif" font-size="13" fill="#DD2828" text-anchor="middle">15</text>
  <rect x="650" y="736" width="40" height="44" rx="3" fill="#1E0A0A" stroke="#AA1A1A" stroke-width="1"/>
  <text x="670" y="763" font-family="Arial,sans-serif" font-size="13" fill="#DD1C1C" text-anchor="middle">16</text>
  <rect x="690" y="736" width="40" height="44" rx="3" fill="#200808" stroke="#BB1414" stroke-width="1.5"/>
  <text x="710" y="763" font-family="Arial,sans-serif" font-size="13" fill="#EE1818" text-anchor="middle">17</text>
  <rect x="730" y="736" width="40" height="44" rx="3" fill="#220606" stroke="#CC1010" stroke-width="1.5"/>
  <text x="750" y="763" font-family="Arial,sans-serif" font-size="13" fill="#EE1010" text-anchor="middle">18</text>
  <rect x="770" y="736" width="40" height="44" rx="3" fill="#240404" stroke="#DD0C0C" stroke-width="1.5"/>
  <text x="790" y="763" font-family="Arial,sans-serif" font-size="13" fill="#FF0C0C" text-anchor="middle">19</text>
  <rect x="810" y="736" width="40" height="44" rx="3" fill="#2A0202" stroke="#FF0000" stroke-width="2"/>
  <text x="830" y="763" font-family="Arial,sans-serif" font-size="14" font-weight="bold" fill="#FF0000" text-anchor="middle">20</text>

  <!-- Bottom strip -->
  <rect x="0" y="784" width="860" height="16" rx="10" fill="#1A2E1B"/>

</svg>
