<svg xmlns="http://www.w3.org/2000/svg" viewBox="0 0 620 460" width="620" height="460">

  <!-- Board background -->
  <rect width="620" height="460" rx="10" fill="#2C3E2D"/>

  <!-- Header -->
  <rect x="0" y="0" width="620" height="50" rx="10" fill="#1A2E1B"/>
  <rect x="0" y="42" width="620" height="8" fill="#1A2E1B"/>
  <text x="18" y="33" font-family="Georgia,serif" font-size="20" font-weight="bold" fill="#E8DDB5">GAME STATE</text>

  <!-- Round counter (12 boxes) -->
  <text x="232" y="17" font-family="Arial,sans-serif" font-size="9" fill="#8AAA78">ROUND</text>
  <rect x="272" y="11" width="26" height="26" rx="3" fill="#162018" stroke="#4A6A4A" stroke-width="1"/>
  <text x="285" y="28" font-family="Arial,sans-serif" font-size="9" fill="#8AAA78" text-anchor="middle">1</text>
  <rect x="300" y="11" width="26" height="26" rx="3" fill="#162018" stroke="#4A6A4A" stroke-width="1"/>
  <text x="313" y="28" font-family="Arial,sans-serif" font-size="9" fill="#8AAA78" text-anchor="middle">2</text>
  <rect x="328" y="11" width="26" height="26" rx="3" fill="#162018" stroke="#4A6A4A" stroke-width="1"/>
  <text x="341" y="28" font-family="Arial,sans-serif" font-size="9" fill="#8AAA78" text-anchor="middle">3</text>
  <rect x="356" y="11" width="26" height="26" rx="3" fill="#162018" stroke="#4A6A4A" stroke-width="1"/>
  <text x="369" y="28" font-family="Arial,sans-serif" font-size="9" fill="#8AAA78" text-anchor="middle">4</text>
  <rect x="384" y="11" width="26" height="26" rx="3" fill="#162018" stroke="#4A6A4A" stroke-width="1"/>
  <text x="397" y="28" font-family="Arial,sans-serif" font-size="9" fill="#8AAA78" text-anchor="middle">5</text>
  <rect x="412" y="11" width="26" height="26" rx="3" fill="#162018" stroke="#4A6A4A" stroke-width="1"/>
  <text x="425" y="28" font-family="Arial,sans-serif" font-size="9" fill="#8AAA78" text-anchor="middle">6</text>
  <rect x="440" y="11" width="26" height="26" rx="3" fill="#162018" stroke="#4A6A4A" stroke-width="1"/>
  <text x="453" y="28" font-family="Arial,sans-serif" font-size="9" fill="#8AAA78" text-anchor="middle">7</text>
  <rect x="468" y="11" width="26" height="26" rx="3" fill="#162018" stroke="#4A6A4A" stroke-width="1"/>
  <text x="481" y="28" font-family="Arial,sans-serif" font-size="9" fill="#8AAA78" text-anchor="middle">8</text>
  <rect x="496" y="11" width="26" height="26" rx="3" fill="#162018" stroke="#4A6A4A" stroke-width="1"/>
  <text x="509" y="28" font-family="Arial,sans-serif" font-size="9" fill="#8AAA78" text-anchor="middle">9</text>
  <rect x="524" y="11" width="26" height="26" rx="3" fill="#162018" stroke="#4A6A4A" stroke-width="1"/>
  <text x="537" y="28" font-family="Arial,sans-serif" font-size="9" fill="#8AAA78" text-anchor="middle">10</text>
  <rect x="552" y="11" width="26" height="26" rx="3" fill="#162018" stroke="#4A6A4A" stroke-width="1"/>
  <text x="565" y="28" font-family="Arial,sans-serif" font-size="9" fill="#8AAA78" text-anchor="middle">11</text>
  <rect x="580" y="11" width="26" height="26" rx="3" fill="#162018" stroke="#4A6A4A" stroke-width="1"/>
  <text x="593" y="28" font-family="Arial,sans-serif" font-size="9" fill="#8AAA78" text-anchor="middle">12</text>

  <!-- DECKS label -->
  <text x="18" y="68" font-family="Arial,sans-serif" font-size="9" fill="#8AAA78">DECKS  ·  DRAW / DISCARD</text>

  <!-- Zone divider -->
  <line x1="310" y1="58" x2="310" y2="212" stroke="#3A5A3A" stroke-width="1"/>

  <!-- EVENT deck (zone x=0-310, center=155) -->
  <text x="155" y="82" font-family="Arial,sans-serif" font-size="8" fill="#E8DDB5" text-anchor="middle" letter-spacing="1">EVENT</text>
  <rect x="76" y="92" width="78" height="110" rx="5" fill="#0E1810"/>
  <rect x="72" y="88" width="78" height="110" rx="5" fill="#162018" stroke="#4A6A4A" stroke-width="1.5"/>
  <text x="111" y="148" font-family="Arial,sans-serif" font-size="7" fill="#4A6A4A" text-anchor="middle">DRAW</text>
  <rect x="160" y="88" width="78" height="110" rx="5" fill="#162018" stroke="#4A6A4A" stroke-width="1.5" stroke-dasharray="7,4"/>
  <text x="199" y="148" font-family="Arial,sans-serif" font-size="7" fill="#4A6A4A" text-anchor="middle">DISCARD</text>

  <!-- MISSION deck (zone x=310-620, center=465) -->
  <text x="465" y="82" font-family="Arial,sans-serif" font-size="8" fill="#E8DDB5" text-anchor="middle" letter-spacing="1">MISSION</text>
  <rect x="386" y="92" width="78" height="110" rx="5" fill="#0E1810"/>
  <rect x="382" y="88" width="78" height="110" rx="5" fill="#162018" stroke="#4A6A4A" stroke-width="1.5"/>
  <text x="421" y="148" font-family="Arial,sans-serif" font-size="7" fill="#4A6A4A" text-anchor="middle">DRAW</text>
  <rect x="470" y="88" width="78" height="110" rx="5" fill="#162018" stroke="#4A6A4A" stroke-width="1.5" stroke-dasharray="7,4"/>
  <text x="509" y="148" font-family="Arial,sans-serif" font-size="7" fill="#4A6A4A" text-anchor="middle">DISCARD</text>

  <!-- Divider above trackers -->
  <line x1="10" y1="216" x2="610" y2="216" stroke="#5A7A5A" stroke-width="2"/>

  <!-- PROGRESS TRACKER (0-20, 27px boxes) -->
  <text x="18" y="234" font-family="Arial,sans-serif" font-size="9" fill="#8AAA78" letter-spacing="1.5">PROGRESS TRACKER</text>
  <rect x="15"  y="240" width="27" height="34" rx="3" fill="#162018" stroke="#4A6A4A" stroke-width="1"/>
  <text x="28"  y="261" font-family="Arial,sans-serif" font-size="10" fill="#E8DDB5" text-anchor="middle">0</text>
  <rect x="42"  y="240" width="27" height="34" rx="3" fill="#162018" stroke="#4A6A4A" stroke-width="1"/>
  <text x="55"  y="261" font-family="Arial,sans-serif" font-size="10" fill="#E8DDB5" text-anchor="middle">1</text>
  <rect x="69"  y="240" width="27" height="34" rx="3" fill="#162018" stroke="#4A6A4A" stroke-width="1"/>
  <text x="82"  y="261" font-family="Arial,sans-serif" font-size="10" fill="#E8DDB5" text-anchor="middle">2</text>
  <rect x="96"  y="240" width="27" height="34" rx="3" fill="#162018" stroke="#4A6A4A" stroke-width="1"/>
  <text x="109" y="261" font-family="Arial,sans-serif" font-size="10" fill="#E8DDB5" text-anchor="middle">3</text>
  <rect x="123" y="240" width="27" height="34" rx="3" fill="#162018" stroke="#4A6A4A" stroke-width="1"/>
  <text x="136" y="261" font-family="Arial,sans-serif" font-size="10" fill="#E8DDB5" text-anchor="middle">4</text>
  <rect x="150" y="240" width="27" height="34" rx="3" fill="#162018" stroke="#4A6A4A" stroke-width="1"/>
  <text x="163" y="261" font-family="Arial,sans-serif" font-size="10" fill="#E8DDB5" text-anchor="middle">5</text>
  <rect x="177" y="240" width="27" height="34" rx="3" fill="#162018" stroke="#4A6A4A" stroke-width="1"/>
  <text x="190" y="261" font-family="Arial,sans-serif" font-size="10" fill="#E8DDB5" text-anchor="middle">6</text>
  <rect x="204" y="240" width="27" height="34" rx="3" fill="#162018" stroke="#4A6A4A" stroke-width="1"/>
  <text x="217" y="261" font-family="Arial,sans-serif" font-size="10" fill="#E8DDB5" text-anchor="middle">7</text>
  <rect x="231" y="240" width="27" height="34" rx="3" fill="#162018" stroke="#4A6A4A" stroke-width="1"/>
  <text x="244" y="261" font-family="Arial,sans-serif" font-size="10" fill="#E8DDB5" text-anchor="middle">8</text>
  <rect x="258" y="240" width="27" height="34" rx="3" fill="#162018" stroke="#4A6A4A" stroke-width="1"/>
  <text x="271" y="261" font-family="Arial,sans-serif" font-size="10" fill="#E8DDB5" text-anchor="middle">9</text>
  <rect x="285" y="240" width="27" height="34" rx="3" fill="#162018" stroke="#4A6A4A" stroke-width="1"/>
  <text x="298" y="261" font-family="Arial,sans-serif" font-size="10" fill="#E8DDB5" text-anchor="middle">10</text>
  <rect x="312" y="240" width="27" height="34" rx="3" fill="#162018" stroke="#4A6A4A" stroke-width="1"/>
  <text x="325" y="261" font-family="Arial,sans-serif" font-size="10" fill="#E8DDB5" text-anchor="middle">11</text>
  <rect x="339" y="240" width="27" height="34" rx="3" fill="#162018" stroke="#4A6A4A" stroke-width="1"/>
  <text x="352" y="261" font-family="Arial,sans-serif" font-size="10" fill="#E8DDB5" text-anchor="middle">12</text>
  <rect x="366" y="240" width="27" height="34" rx="3" fill="#162018" stroke="#4A6A4A" stroke-width="1"/>
  <text x="379" y="261" font-family="Arial,sans-serif" font-size="10" fill="#E8DDB5" text-anchor="middle">13</text>
  <rect x="393" y="240" width="27" height="34" rx="3" fill="#162018" stroke="#4A6A4A" stroke-width="1"/>
  <text x="406" y="261" font-family="Arial,sans-serif" font-size="10" fill="#E8DDB5" text-anchor="middle">14</text>
  <rect x="420" y="240" width="27" height="34" rx="3" fill="#162018" stroke="#4A6A4A" stroke-width="1"/>
  <text x="433" y="261" font-family="Arial,sans-serif" font-size="10" fill="#E8DDB5" text-anchor="middle">15</text>
  <rect x="447" y="240" width="27" height="34" rx="3" fill="#162018" stroke="#4A6A4A" stroke-width="1"/>
  <text x="460" y="261" font-family="Arial,sans-serif" font-size="10" fill="#E8DDB5" text-anchor="middle">16</text>
  <rect x="474" y="240" width="27" height="34" rx="3" fill="#162018" stroke="#4A6A4A" stroke-width="1"/>
  <text x="487" y="261" font-family="Arial,sans-serif" font-size="10" fill="#E8DDB5" text-anchor="middle">17</text>
  <rect x="501" y="240" width="27" height="34" rx="3" fill="#162018" stroke="#4A6A4A" stroke-width="1"/>
  <text x="514" y="261" font-family="Arial,sans-serif" font-size="10" fill="#E8DDB5" text-anchor="middle">18</text>
  <rect x="528" y="240" width="27" height="34" rx="3" fill="#162018" stroke="#4A6A4A" stroke-width="1"/>
  <text x="541" y="261" font-family="Arial,sans-serif" font-size="10" fill="#E8DDB5" text-anchor="middle">19</text>
  <rect x="555" y="240" width="27" height="34" rx="3" fill="#162018" stroke="#6A4A4A" stroke-width="1.5"/>
  <text x="568" y="261" font-family="Arial,sans-serif" font-size="10" fill="#AA6655" text-anchor="middle">20</text>

  <!-- Divider between trackers -->
  <line x1="10" y1="286" x2="610" y2="286" stroke="#3A5A3A" stroke-width="1"/>

  <!-- OVERRUN TRACKER (0-20, gradient red at high values) -->
  <text x="18" y="304" font-family="Arial,sans-serif" font-size="9" fill="#8AAA78" letter-spacing="1.5">OVERRUN TRACKER</text>
  <rect x="15"  y="310" width="27" height="34" rx="3" fill="#162018" stroke="#4A6A4A" stroke-width="1"/>
  <text x="28"  y="331" font-family="Arial,sans-serif" font-size="10" fill="#E8DDB5" text-anchor="middle">0</text>
  <rect x="42"  y="310" width="27" height="34" rx="3" fill="#162018" stroke="#4A6A4A" stroke-width="1"/>
  <text x="55"  y="331" font-family="Arial,sans-serif" font-size="10" fill="#E8DDB5" text-anchor="middle">1</text>
  <rect x="69"  y="310" width="27" height="34" rx="3" fill="#162018" stroke="#4A6A4A" stroke-width="1"/>
  <text x="82"  y="331" font-family="Arial,sans-serif" font-size="10" fill="#E8DDB5" text-anchor="middle">2</text>
  <rect x="96"  y="310" width="27" height="34" rx="3" fill="#162018" stroke="#4A6A4A" stroke-width="1"/>
  <text x="109" y="331" font-family="Arial,sans-serif" font-size="10" fill="#E8DDB5" text-anchor="middle">3</text>
  <rect x="123" y="310" width="27" height="34" rx="3" fill="#162018" stroke="#4A6A4A" stroke-width="1"/>
  <text x="136" y="331" font-family="Arial,sans-serif" font-size="10" fill="#E8DDB5" text-anchor="middle">4</text>
  <rect x="150" y="310" width="27" height="34" rx="3" fill="#162018" stroke="#4A6A4A" stroke-width="1"/>
  <text x="163" y="331" font-family="Arial,sans-serif" font-size="10" fill="#E8DDB5" text-anchor="middle">5</text>
  <rect x="177" y="310" width="27" height="34" rx="3" fill="#162018" stroke="#4A6A4A" stroke-width="1"/>
  <text x="190" y="331" font-family="Arial,sans-serif" font-size="10" fill="#E8DDB5" text-anchor="middle">6</text>
  <rect x="204" y="310" width="27" height="34" rx="3" fill="#162018" stroke="#4A6A4A" stroke-width="1"/>
  <text x="217" y="331" font-family="Arial,sans-serif" font-size="10" fill="#E8DDB5" text-anchor="middle">7</text>
  <rect x="231" y="310" width="27" height="34" rx="3" fill="#162018" stroke="#4A6A4A" stroke-width="1"/>
  <text x="244" y="331" font-family="Arial,sans-serif" font-size="10" fill="#E8DDB5" text-anchor="middle">8</text>
  <rect x="258" y="310" width="27" height="34" rx="3" fill="#162018" stroke="#4A6A4A" stroke-width="1"/>
  <text x="271" y="331" font-family="Arial,sans-serif" font-size="10" fill="#E8DDB5" text-anchor="middle">9</text>
  <rect x="285" y="310" width="27" height="34" rx="3" fill="#162018" stroke="#5A5A3A" stroke-width="1"/>
  <text x="298" y="331" font-family="Arial,sans-serif" font-size="10" fill="#CCCC88" text-anchor="middle">10</text>
  <rect x="312" y="310" width="27" height="34" rx="3" fill="#1C1810" stroke="#6A5A30" stroke-width="1"/>
  <text x="325" y="331" font-family="Arial,sans-serif" font-size="10" fill="#CCAA55" text-anchor="middle">11</text>
  <rect x="339" y="310" width="27" height="34" rx="3" fill="#1C1410" stroke="#7A4A28" stroke-width="1"/>
  <text x="352" y="331" font-family="Arial,sans-serif" font-size="10" fill="#CC8840" text-anchor="middle">12</text>
  <rect x="366" y="310" width="27" height="34" rx="3" fill="#1C1010" stroke="#8A3838" stroke-width="1"/>
  <text x="379" y="331" font-family="Arial,sans-serif" font-size="10" fill="#CC5540" text-anchor="middle">13</text>
  <rect x="393" y="310" width="27" height="34" rx="3" fill="#1C0E0E" stroke="#9A2828" stroke-width="1"/>
  <text x="406" y="331" font-family="Arial,sans-serif" font-size="10" fill="#CC3838" text-anchor="middle">14</text>
  <rect x="420" y="310" width="27" height="34" rx="3" fill="#1C0C0C" stroke="#AA2020" stroke-width="1"/>
  <text x="433" y="331" font-family="Arial,sans-serif" font-size="10" fill="#DD2828" text-anchor="middle">15</text>
  <rect x="447" y="310" width="27" height="34" rx="3" fill="#1E0A0A" stroke="#AA1C1C" stroke-width="1"/>
  <text x="460" y="331" font-family="Arial,sans-serif" font-size="10" fill="#DD1C1C" text-anchor="middle">16</text>
  <rect x="474" y="310" width="27" height="34" rx="3" fill="#200808" stroke="#BB1818" stroke-width="1.5"/>
  <text x="487" y="331" font-family="Arial,sans-serif" font-size="10" fill="#EE1818" text-anchor="middle">17</text>
  <rect x="501" y="310" width="27" height="34" rx="3" fill="#220606" stroke="#CC1414" stroke-width="1.5"/>
  <text x="514" y="331" font-family="Arial,sans-serif" font-size="10" fill="#EE1010" text-anchor="middle">18</text>
  <rect x="528" y="310" width="27" height="34" rx="3" fill="#240404" stroke="#DD1010" stroke-width="1.5"/>
  <text x="541" y="331" font-family="Arial,sans-serif" font-size="10" fill="#FF0C0C" text-anchor="middle">19</text>
  <rect x="555" y="310" width="27" height="34" rx="3" fill="#2A0202" stroke="#FF0000" stroke-width="2"/>
  <text x="568" y="331" font-family="Arial,sans-serif" font-size="11" font-weight="bold" fill="#FF0000" text-anchor="middle">20</text>

  <!-- Legend -->
  <text x="15"  y="360" font-family="Arial,sans-serif" font-size="8" fill="#6A8A6A">0-9 Controlled</text>
  <text x="132" y="360" font-family="Arial,sans-serif" font-size="8" fill="#CCCC88">10 Warning</text>
  <text x="234" y="360" font-family="Arial,sans-serif" font-size="8" fill="#CC8840">12+ Critical</text>
  <text x="342" y="360" font-family="Arial,sans-serif" font-size="8" fill="#DD2828">15+ Severe</text>
  <text x="446" y="360" font-family="Arial,sans-serif" font-size="8" fill="#FF0000">20 DEFEAT</text>

  <!-- Bottom strip -->
  <rect x="0" y="443" width="620" height="17" rx="10" fill="#1A2E1B"/>

</svg>
