<svg xmlns="http://www.w3.org/2000/svg" viewBox="0 0 880 780" width="880" height="780">

  <!-- Table surface -->
  <rect width="880" height="780" rx="20" fill="#1A2E1A"/>
  <rect x="4" y="4" width="872" height="772" rx="18" fill="none" stroke="#2C4A2C" stroke-width="2"/>

  <!-- Title -->
  <text x="440" y="24" font-family="Georgia,serif" font-size="13" font-weight="bold" fill="#8AAA78" text-anchor="middle" letter-spacing="2">TABLE LAYOUT  (33% SCALE)</text>

  <!-- ===================== -->
  <!-- TOP ROW: MEDICAL BAY, COMMAND, CONTAINMENT BLOCK -->
  <!-- All at ~33% scale -->
  <!-- Medical Bay: 400x380 -> 132x125 -->
  <!-- Command: 400x564 -> 132x186 -->
  <!-- Containment Block: 400x380 -> 132x125 -->
  <!-- ===================== -->

  <!-- MEDICAL BAY (x=100, y=36) -->
  <rect x="100" y="36" width="132" height="125" rx="3" fill="#2C3E2D"/>
  <rect x="100" y="36" width="132" height="17" rx="3" fill="#1A2E1B"/>
  <text x="166" y="49" font-family="Georgia,serif" font-size="7" font-weight="bold" fill="#E8DDB5" text-anchor="middle" letter-spacing="1">MEDICAL BAY</text>
  <text x="107" y="62" font-family="Arial,sans-serif" font-size="5" fill="#8AAA78">UPGRADES x2</text>
  <rect x="115" y="65" width="26" height="36" rx="2" fill="#162018" stroke="#4A6A4A" stroke-width="0.8" stroke-dasharray="3,2"/>
  <rect x="145" y="65" width="26" height="36" rx="2" fill="#162018" stroke="#4A6A4A" stroke-width="0.8" stroke-dasharray="3,2"/>
  <line x1="104" y1="107" x2="228" y2="107" stroke="#3A5A3A" stroke-width="0.5"/>
  <text x="107" y="116" font-family="Arial,sans-serif" font-size="5" fill="#8AAA78">HEAL SLOTS x4</text>
  <rect x="105" y="118" width="26" height="36" rx="2" fill="#162018" stroke="#4A6A4A" stroke-width="0.8" stroke-dasharray="3,2"/>
  <rect x="135" y="118" width="26" height="36" rx="2" fill="#162018" stroke="#4A6A4A" stroke-width="0.8" stroke-dasharray="3,2"/>
  <rect x="165" y="118" width="26" height="36" rx="2" fill="#162018" stroke="#4A6A4A" stroke-width="0.8" stroke-dasharray="3,2"/>
  <rect x="195" y="118" width="26" height="36" rx="2" fill="#162018" stroke="#4A6A4A" stroke-width="0.8" stroke-dasharray="3,2"/>

  <!-- COMMAND (x=374, y=36) -->
  <rect x="374" y="36" width="132" height="186" rx="3" fill="#2C3E2D"/>
  <rect x="374" y="36" width="132" height="17" rx="3" fill="#1A2E1B"/>
  <text x="440" y="49" font-family="Georgia,serif" font-size="7" font-weight="bold" fill="#E8DDB5" text-anchor="middle" letter-spacing="1">COMMAND</text>
  <text x="381" y="62" font-family="Arial,sans-serif" font-size="5" fill="#8AAA78">UPGRADES x2</text>
  <rect x="399" y="65" width="26" height="36" rx="2" fill="#162018" stroke="#4A6A4A" stroke-width="0.8" stroke-dasharray="3,2"/>
  <rect x="429" y="65" width="26" height="36" rx="2" fill="#162018" stroke="#4A6A4A" stroke-width="0.8" stroke-dasharray="3,2"/>
  <line x1="378" y1="107" x2="502" y2="107" stroke="#3A5A3A" stroke-width="0.5"/>
  <text x="381" y="116" font-family="Arial,sans-serif" font-size="5" fill="#8AAA78">COMMAND POOL</text>
  <rect x="381" y="118" width="118" height="17" rx="2" fill="#162018" stroke="#3A5A3A" stroke-width="0.5"/>
  <line x1="378" y1="141" x2="502" y2="141" stroke="#3A5A3A" stroke-width="0.5"/>
  <text x="381" y="150" font-family="Arial,sans-serif" font-size="5" fill="#8AAA78">DECKS</text>
  <line x1="440" y1="141" x2="440" y2="218" stroke="#3A5A3A" stroke-width="0.5"/>
  <text x="407" y="158" font-family="Arial,sans-serif" font-size="4.5" fill="#C8DDB5" text-anchor="middle">CMD CARDS</text>
  <rect x="381" y="160" width="26" height="36" rx="2" fill="#162018" stroke="#4A6A4A" stroke-width="0.8"/>
  <rect x="411" y="160" width="26" height="36" rx="2" fill="#162018" stroke="#4A6A4A" stroke-width="0.8" stroke-dasharray="3,2"/>
  <text x="473" y="158" font-family="Arial,sans-serif" font-size="4.5" fill="#C8DDB5" text-anchor="middle">MISSION</text>
  <rect x="447" y="160" width="26" height="36" rx="2" fill="#162018" stroke="#4A6A4A" stroke-width="0.8"/>
  <rect x="477" y="160" width="26" height="36" rx="2" fill="#162018" stroke="#4A6A4A" stroke-width="0.8" stroke-dasharray="3,2"/>

  <!-- CONTAINMENT BLOCK (x=648, y=36) -->
  <rect x="648" y="36" width="132" height="125" rx="3" fill="#2C3E2D"/>
  <rect x="648" y="36" width="132" height="17" rx="3" fill="#1A2E1B"/>
  <text x="714" y="49" font-family="Georgia,serif" font-size="7" font-weight="bold" fill="#E8DDB5" text-anchor="middle" letter-spacing="1">CONTAINMENT</text>
  <text x="655" y="62" font-family="Arial,sans-serif" font-size="5" fill="#8AAA78">UPGRADES x3</text>
  <rect x="658" y="65" width="26" height="36" rx="2" fill="#162018" stroke="#4A6A4A" stroke-width="0.8" stroke-dasharray="3,2"/>
  <rect x="688" y="65" width="26" height="36" rx="2" fill="#162018" stroke="#4A6A4A" stroke-width="0.8" stroke-dasharray="3,2"/>
  <rect x="718" y="65" width="26" height="36" rx="2" fill="#162018" stroke="#4A6A4A" stroke-width="0.8" stroke-dasharray="3,2"/>
  <line x1="652" y1="107" x2="776" y2="107" stroke="#3A5A3A" stroke-width="0.5"/>
  <text x="655" y="116" font-family="Arial,sans-serif" font-size="5" fill="#8AAA78">HOLDING CELLS x2</text>
  <rect x="668" y="118" width="26" height="36" rx="2" fill="#162018" stroke="#4A6A4A" stroke-width="0.8" stroke-dasharray="3,2"/>
  <rect x="698" y="118" width="26" height="36" rx="2" fill="#162018" stroke="#4A6A4A" stroke-width="0.8" stroke-dasharray="3,2"/>

  <!-- ===================== -->
  <!-- CENTER: BATTLEFIELD (x=278, y=250) at 33% of 860x988 = 284x326 -->
  <!-- ===================== -->
  <rect x="278" y="250" width="324" height="396" rx="3" fill="#2C3E2D"/>
  <rect x="278" y="250" width="324" height="17" rx="3" fill="#1A2E1B"/>
  <text x="440" y="263" font-family="Georgia,serif" font-size="8" font-weight="bold" fill="#E8DDB5" text-anchor="middle" letter-spacing="2">BATTLEFIELD</text>

  <!-- Upgrade slots (3) in header -->
  <rect x="350" y="270" width="26" height="36" rx="2" fill="#162018" stroke="#4A6A4A" stroke-width="0.8" stroke-dasharray="3,2"/>
  <rect x="379" y="270" width="26" height="36" rx="2" fill="#162018" stroke="#4A6A4A" stroke-width="0.8" stroke-dasharray="3,2"/>
  <rect x="408" y="270" width="26" height="36" rx="2" fill="#162018" stroke="#4A6A4A" stroke-width="0.8" stroke-dasharray="3,2"/>
  <text x="323" y="279" font-family="Arial,sans-serif" font-size="4.5" fill="#8AAA78">UPG</text>

  <!-- Lane dividers -->
  <line x1="278" y1="313" x2="602" y2="313" stroke="#5A7A5A" stroke-width="1"/>
  <line x1="359" y1="313" x2="359" y2="565" stroke="#5A7A5A" stroke-width="0.8"/>
  <line x1="440" y1="313" x2="440" y2="565" stroke="#5A7A5A" stroke-width="0.8"/>
  <line x1="521" y1="313" x2="521" y2="565" stroke="#5A7A5A" stroke-width="0.8"/>

  <!-- Lane labels -->
  <text x="318" y="325" font-family="Arial,sans-serif" font-size="5" font-weight="bold" fill="#E8DDB5" text-anchor="middle">L1</text>
  <text x="399" y="325" font-family="Arial,sans-serif" font-size="5" font-weight="bold" fill="#E8DDB5" text-anchor="middle">L2</text>
  <text x="480" y="325" font-family="Arial,sans-serif" font-size="5" font-weight="bold" fill="#E8DDB5" text-anchor="middle">L3</text>
  <text x="561" y="325" font-family="Arial,sans-serif" font-size="5" font-weight="bold" fill="#E8DDB5" text-anchor="middle">L4</text>

  <!-- Enemy zone -->
  <rect x="283" y="330" width="71" height="76" rx="0" fill="#1C1C2E"/>
  <rect x="359" y="330" width="71" height="76" rx="0" fill="#1C1C2E"/>
  <rect x="440" y="330" width="71" height="76" rx="0" fill="#1C1C2E"/>
  <rect x="521" y="330" width="72" height="76" rx="0" fill="#1C1C2E"/>

  <!-- Enemy active slots (schematic) -->
  <rect x="309" y="337" width="20" height="28" rx="2" fill="#12122A" stroke="#5555AA" stroke-width="0.8"/>
  <rect x="390" y="337" width="20" height="28" rx="2" fill="#12122A" stroke="#5555AA" stroke-width="0.8"/>
  <rect x="471" y="337" width="20" height="28" rx="2" fill="#12122A" stroke="#5555AA" stroke-width="0.8"/>
  <rect x="552" y="337" width="20" height="28" rx="2" fill="#12122A" stroke="#5555AA" stroke-width="0.8"/>

  <!-- Enemy reserve slots (3 each) -->
  <rect x="287" y="372" width="14" height="20" rx="1" fill="#12122A" stroke="#444488" stroke-width="0.5"/>
  <rect x="303" y="372" width="14" height="20" rx="1" fill="#12122A" stroke="#444488" stroke-width="0.5"/>
  <rect x="319" y="372" width="14" height="20" rx="1" fill="#12122A" stroke="#444488" stroke-width="0.5"/>
  <rect x="368" y="372" width="14" height="20" rx="1" fill="#12122A" stroke="#444488" stroke-width="0.5"/>
  <rect x="384" y="372" width="14" height="20" rx="1" fill="#12122A" stroke="#444488" stroke-width="0.5"/>
  <rect x="400" y="372" width="14" height="20" rx="1" fill="#12122A" stroke="#444488" stroke-width="0.5"/>
  <rect x="449" y="372" width="14" height="20" rx="1" fill="#12122A" stroke="#444488" stroke-width="0.5"/>
  <rect x="465" y="372" width="14" height="20" rx="1" fill="#12122A" stroke="#444488" stroke-width="0.5"/>
  <rect x="481" y="372" width="14" height="20" rx="1" fill="#12122A" stroke="#444488" stroke-width="0.5"/>
  <rect x="530" y="372" width="14" height="20" rx="1" fill="#12122A" stroke="#444488" stroke-width="0.5"/>
  <rect x="546" y="372" width="14" height="20" rx="1" fill="#12122A" stroke="#444488" stroke-width="0.5"/>
  <rect x="562" y="372" width="14" height="20" rx="1" fill="#12122A" stroke="#444488" stroke-width="0.5"/>

  <!-- VS line -->
  <line x1="283" y1="414" x2="597" y2="414" stroke="#4A6A4A" stroke-width="0.8"/>
  <text x="318" y="413" font-family="Arial,sans-serif" font-size="5" fill="#5A7A5A" text-anchor="middle">vs</text>
  <text x="399" y="413" font-family="Arial,sans-serif" font-size="5" fill="#5A7A5A" text-anchor="middle">vs</text>
  <text x="480" y="413" font-family="Arial,sans-serif" font-size="5" fill="#5A7A5A" text-anchor="middle">vs</text>
  <text x="561" y="413" font-family="Arial,sans-serif" font-size="5" fill="#5A7A5A" text-anchor="middle">vs</text>

  <!-- Player zone -->
  <rect x="283" y="420" width="71" height="80" rx="0" fill="#28200E"/>
  <rect x="359" y="420" width="71" height="80" rx="0" fill="#28200E"/>
  <rect x="440" y="420" width="71" height="80" rx="0" fill="#28200E"/>
  <rect x="521" y="420" width="72" height="80" rx="0" fill="#28200E"/>

  <!-- Player active slots -->
  <rect x="309" y="426" width="20" height="28" rx="2" fill="#2A1208" stroke="#AA6622" stroke-width="0.8"/>
  <rect x="390" y="426" width="20" height="28" rx="2" fill="#2A1208" stroke="#AA6622" stroke-width="0.8"/>
  <rect x="471" y="426" width="20" height="28" rx="2" fill="#2A1208" stroke="#AA6622" stroke-width="0.8"/>
  <rect x="552" y="426" width="20" height="28" rx="2" fill="#2A1208" stroke="#AA6622" stroke-width="0.8"/>

  <!-- Player reserve slots -->
  <rect x="287" y="461" width="14" height="20" rx="1" fill="#2A1208" stroke="#775533" stroke-width="0.5"/>
  <rect x="303" y="461" width="14" height="20" rx="1" fill="#2A1208" stroke="#775533" stroke-width="0.5"/>
  <rect x="319" y="461" width="14" height="20" rx="1" fill="#2A1208" stroke="#775533" stroke-width="0.5"/>
  <rect x="368" y="461" width="14" height="20" rx="1" fill="#2A1208" stroke="#775533" stroke-width="0.5"/>
  <rect x="384" y="461" width="14" height="20" rx="1" fill="#2A1208" stroke="#775533" stroke-width="0.5"/>
  <rect x="400" y="461" width="14" height="20" rx="1" fill="#2A1208" stroke="#775533" stroke-width="0.5"/>
  <rect x="449" y="461" width="14" height="20" rx="1" fill="#2A1208" stroke="#775533" stroke-width="0.5"/>
  <rect x="465" y="461" width="14" height="20" rx="1" fill="#2A1208" stroke="#775533" stroke-width="0.5"/>
  <rect x="481" y="461" width="14" height="20" rx="1" fill="#2A1208" stroke="#775533" stroke-width="0.5"/>
  <rect x="530" y="461" width="14" height="20" rx="1" fill="#2A1208" stroke="#775533" stroke-width="0.5"/>
  <rect x="546" y="461" width="14" height="20" rx="1" fill="#2A1208" stroke="#775533" stroke-width="0.5"/>
  <rect x="562" y="461" width="14" height="20" rx="1" fill="#2A1208" stroke="#775533" stroke-width="0.5"/>

  <!-- Bottom section of battlefield: deck zone + trackers -->
  <line x1="283" y1="506" x2="597" y2="506" stroke="#5A7A5A" stroke-width="0.8"/>
  <text x="318" y="516" font-family="Arial,sans-serif" font-size="4" fill="#8AAA78" text-anchor="middle">EVENT</text>
  <rect x="294" y="518" width="18" height="26" rx="2" fill="#162018" stroke="#4A6A4A" stroke-width="0.5"/>
  <rect x="314" y="518" width="18" height="26" rx="2" fill="#162018" stroke="#4A6A4A" stroke-width="0.5" stroke-dasharray="2,2"/>
  <text x="399" y="516" font-family="Arial,sans-serif" font-size="4" fill="#8888CC" text-anchor="middle">ENEMY</text>
  <rect x="375" y="518" width="18" height="26" rx="2" fill="#12122A" stroke="#5555AA" stroke-width="0.5"/>
  <rect x="395" y="518" width="18" height="26" rx="2" fill="#12122A" stroke="#444488" stroke-width="0.5" stroke-dasharray="2,2"/>
  <text x="480" y="516" font-family="Arial,sans-serif" font-size="4" fill="#AA5555" text-anchor="middle">BOSS</text>
  <rect x="456" y="518" width="18" height="26" rx="2" fill="#1A0A0A" stroke="#AA4444" stroke-width="0.5"/>
  <rect x="476" y="518" width="18" height="26" rx="2" fill="#1A0A0A" stroke="#884444" stroke-width="0.5" stroke-dasharray="2,2"/>

  <!-- Tracker bars -->
  <line x1="283" y1="550" x2="597" y2="550" stroke="#3A5A3A" stroke-width="0.5"/>
  <text x="283" y="558" font-family="Arial,sans-serif" font-size="4" fill="#8AAA78">PROGRESS 0-10</text>
  <rect x="283" y="560" width="314" height="8" rx="1" fill="#162018" stroke="#4A6A4A" stroke-width="0.5"/>
  <text x="283" y="576" font-family="Arial,sans-serif" font-size="4" fill="#8AAA78">OVERRUN 0-20</text>
  <rect x="283" y="578" width="314" height="8" rx="1" fill="#162018" stroke="#4A6A4A" stroke-width="0.5"/>
  <!-- red end of overrun -->
  <rect x="552" y="578" width="45" height="8" rx="1" fill="#2A0202" stroke="#AA0000" stroke-width="0.5"/>

  <!-- ===================== -->
  <!-- BOTTOM ROW: BARRACKS, ARMORY -->
  <!-- ===================== -->

  <!-- BARRACKS (x=100, y=662) 400x518 -> 132x171 -->
  <rect x="100" y="662" width="132" height="100" rx="3" fill="#2C3E2D"/>
  <rect x="100" y="662" width="132" height="17" rx="3" fill="#1A2E1B"/>
  <text x="166" y="675" font-family="Georgia,serif" font-size="7" font-weight="bold" fill="#E8DDB5" text-anchor="middle" letter-spacing="1">BARRACKS</text>
  <text x="107" y="689" font-family="Arial,sans-serif" font-size="5" fill="#8AAA78">UPGRADES x4</text>
  <rect x="105" y="692" width="26" height="36" rx="2" fill="#162018" stroke="#4A6A4A" stroke-width="0.8" stroke-dasharray="3,2"/>
  <rect x="135" y="692" width="26" height="36" rx="2" fill="#162018" stroke="#4A6A4A" stroke-width="0.8" stroke-dasharray="3,2"/>
  <rect x="165" y="692" width="26" height="36" rx="2" fill="#162018" stroke="#4A6A4A" stroke-width="0.8" stroke-dasharray="3,2"/>
  <rect x="195" y="692" width="26" height="36" rx="2" fill="#162018" stroke="#4A6A4A" stroke-width="0.8" stroke-dasharray="3,2"/>
  <line x1="104" y1="734" x2="228" y2="734" stroke="#3A5A3A" stroke-width="0.5"/>
  <text x="107" y="743" font-family="Arial,sans-serif" font-size="5" fill="#8AAA78">UNIT SHOP x4 + DECK</text>
  <rect x="105" y="745" width="19" height="26" rx="2" fill="#162018" stroke="#4A6A4A" stroke-width="0.8" stroke-dasharray="2,2"/>
  <rect x="127" y="745" width="19" height="26" rx="2" fill="#162018" stroke="#4A6A4A" stroke-width="0.8" stroke-dasharray="2,2"/>
  <rect x="149" y="745" width="19" height="26" rx="2" fill="#162018" stroke="#4A6A4A" stroke-width="0.8" stroke-dasharray="2,2"/>
  <rect x="171" y="745" width="19" height="26" rx="2" fill="#162018" stroke="#4A6A4A" stroke-width="0.8" stroke-dasharray="2,2"/>
  <rect x="197" y="745" width="18" height="26" rx="2" fill="#162018" stroke="#4A6A4A" stroke-width="0.8"/>
  <rect x="217" y="745" width="18" height="26" rx="2" fill="#162018" stroke="#4A6A4A" stroke-width="0.8" stroke-dasharray="2,2"/>

  <!-- ARMORY (x=648, y=662) 280x518 -> 92x171 -->
  <rect x="648" y="662" width="92" height="100" rx="3" fill="#2C3E2D"/>
  <rect x="648" y="662" width="92" height="17" rx="3" fill="#1A2E1B"/>
  <text x="694" y="675" font-family="Georgia,serif" font-size="7" font-weight="bold" fill="#E8DDB5" text-anchor="middle" letter-spacing="1">ARMORY</text>
  <text x="655" y="689" font-family="Arial,sans-serif" font-size="5" fill="#8AAA78">UPGRADE x1</text>
  <rect x="681" y="692" width="26" height="36" rx="2" fill="#162018" stroke="#4A6A4A" stroke-width="0.8" stroke-dasharray="3,2"/>
  <line x1="652" y1="734" x2="736" y2="734" stroke="#3A5A3A" stroke-width="0.5"/>
  <text x="655" y="743" font-family="Arial,sans-serif" font-size="5" fill="#8AAA78">GEAR SHOP x2 + DECK</text>
  <rect x="652" y="745" width="19" height="26" rx="2" fill="#162018" stroke="#4A6A4A" stroke-width="0.8" stroke-dasharray="2,2"/>
  <rect x="674" y="745" width="19" height="26" rx="2" fill="#162018" stroke="#4A6A4A" stroke-width="0.8" stroke-dasharray="2,2"/>
  <rect x="699" y="745" width="16" height="26" rx="2" fill="#162018" stroke="#4A6A4A" stroke-width="0.8"/>
  <rect x="717" y="745" width="16" height="26" rx="2" fill="#162018" stroke="#4A6A4A" stroke-width="0.8" stroke-dasharray="2,2"/>

  <!-- Player seat indicators -->
  <text x="166" y="656" font-family="Arial,sans-serif" font-size="8" fill="#C8922A" text-anchor="middle">PLAYER 1</text>
  <text x="440" y="232" font-family="Arial,sans-serif" font-size="8" fill="#C8922A" text-anchor="middle">GAME MASTER</text>
  <text x="166" y="172" font-family="Arial,sans-serif" font-size="8" fill="#C8922A" text-anchor="middle">PLAYER 3</text>
  <text x="440" y="30" font-family="Arial,sans-serif" font-size="8" fill="#C8922A" text-anchor="middle">PLAYER 5</text>
  <text x="714" y="172" font-family="Arial,sans-serif" font-size="8" fill="#C8922A" text-anchor="middle">PLAYER 4</text>
  <text x="694" y="656" font-family="Arial,sans-serif" font-size="8" fill="#C8922A" text-anchor="middle">PLAYER 2</text>

  <!-- Legend -->
  <rect x="20" y="680" width="60" height="80" rx="3" fill="#1A2E1B" stroke="#3A5A3A" stroke-width="0.5"/>
  <text x="50" y="692" font-family="Arial,sans-serif" font-size="5" fill="#8AAA78" text-anchor="middle">LEGEND</text>
  <rect x="25" y="696" width="10" height="14" rx="1" fill="#162018" stroke="#4A6A4A" stroke-width="0.5" stroke-dasharray="2,2"/>
  <text x="38" y="707" font-family="Arial,sans-serif" font-size="4" fill="#8AAA78">Card slot</text>
  <rect x="25" y="714" width="10" height="14" rx="1" fill="#162018" stroke="#4A6A4A" stroke-width="0.8"/>
  <text x="38" y="725" font-family="Arial,sans-serif" font-size="4" fill="#8AAA78">Deck (draw)</text>
  <rect x="25" y="732" width="10" height="14" rx="1" fill="#162018" stroke="#4A6A4A" stroke-width="0.8" stroke-dasharray="2,2"/>
  <text x="38" y="743" font-family="Arial,sans-serif" font-size="4" fill="#8AAA78">Deck (discard)</text>
  <rect x="25" y="750" width="10" height="6" rx="1" fill="#1C1C2E" stroke="#5555AA" stroke-width="0.5"/>
  <text x="38" y="758" font-family="Arial,sans-serif" font-size="4" fill="#8888CC">Enemy zone</text>

</svg>
